<svg width="388" height="189" viewBox="0 0 388 189" fill="none" xmlns="http://www.w3.org/2000/svg">
<path d="M6.912 94V22.48H19.968V82.48H50.592V94H6.912ZM73.821 95.152C70.173 95.152 67.005 94.544 64.317 93.328C61.629 92.112 59.549 90.384 58.077 88.144C56.605 85.84 55.869 83.184 55.869 80.176C55.869 77.296 56.509 74.736 57.789 72.496C59.069 70.192 61.053 68.272 63.741 66.736C66.429 65.2 69.821 64.112 73.917 63.472L91.005 60.688V70.288L76.317 72.784C73.821 73.232 71.965 74.032 70.749 75.184C69.533 76.336 68.925 77.84 68.925 79.696C68.925 81.488 69.597 82.928 70.941 84.016C72.349 85.04 74.077 85.552 76.125 85.552C78.749 85.552 81.053 85.008 83.037 83.92C85.085 82.768 86.653 81.2 87.741 79.216C88.893 77.232 89.469 75.056 89.469 72.688V59.248C89.469 57.008 88.573 55.152 86.781 53.68C85.053 52.144 82.749 51.376 79.869 51.376C77.181 51.376 74.781 52.112 72.669 53.584C70.621 54.992 69.117 56.88 68.157 59.248L57.885 54.256C58.909 51.504 60.509 49.136 62.685 47.152C64.925 45.104 67.549 43.504 70.557 42.352C73.565 41.2 76.829 40.624 80.349 40.624C84.637 40.624 88.413 41.424 91.677 43.024C94.941 44.56 97.469 46.736 99.261 49.552C101.117 52.304 102.045 55.536 102.045 59.248V94H90.141V85.072L92.829 84.88C91.485 87.12 89.885 89.008 88.029 90.544C86.173 92.016 84.061 93.168 81.693 94C79.325 94.768 76.701 95.152 73.821 95.152ZM113.669 113.2V41.776H125.477V52.144L124.325 49.552C126.117 46.736 128.549 44.56 131.621 43.024C134.693 41.424 138.245 40.624 142.277 40.624C147.205 40.624 151.653 41.84 155.621 44.272C159.589 46.704 162.725 49.968 165.029 54.064C167.397 58.16 168.581 62.768 168.581 67.888C168.581 72.944 167.429 77.552 165.125 81.712C162.821 85.872 159.685 89.168 155.717 91.6C151.749 93.968 147.237 95.152 142.181 95.152C138.405 95.152 134.917 94.416 131.717 92.944C128.581 91.408 126.085 89.232 124.229 86.416L126.245 83.92V113.2H113.669ZM140.741 83.632C143.621 83.632 146.181 82.96 148.421 81.616C150.661 80.272 152.389 78.416 153.605 76.048C154.885 73.68 155.525 70.96 155.525 67.888C155.525 64.816 154.885 62.128 153.605 59.824C152.389 57.456 150.661 55.6 148.421 54.256C146.181 52.848 143.621 52.144 140.741 52.144C137.989 52.144 135.493 52.816 133.253 54.16C131.077 55.504 129.349 57.392 128.069 59.824C126.853 62.192 126.245 64.88 126.245 67.888C126.245 70.96 126.853 73.68 128.069 76.048C129.349 78.416 131.077 80.272 133.253 81.616C135.493 82.96 137.989 83.632 140.741 83.632ZM203.705 95.152C198.585 95.152 193.913 93.968 189.689 91.6C185.529 89.232 182.201 86 179.705 81.904C177.273 77.808 176.057 73.136 176.057 67.888C176.057 62.64 177.273 57.968 179.705 53.872C182.201 49.776 185.529 46.544 189.689 44.176C193.849 41.808 198.521 40.624 203.705 40.624C208.825 40.624 213.465 41.808 217.625 44.176C221.785 46.544 225.081 49.776 227.513 53.872C230.009 57.904 231.257 62.576 231.257 67.888C231.257 73.136 230.009 77.808 227.513 81.904C225.017 86 221.689 89.232 217.529 91.6C213.369 93.968 208.761 95.152 203.705 95.152ZM203.705 83.632C206.521 83.632 208.985 82.96 211.097 81.616C213.273 80.272 214.969 78.416 216.185 76.048C217.465 73.616 218.105 70.896 218.105 67.888C218.105 64.816 217.465 62.128 216.185 59.824C214.969 57.456 213.273 55.6 211.097 54.256C208.985 52.848 206.521 52.144 203.705 52.144C200.825 52.144 198.297 52.848 196.121 54.256C193.945 55.6 192.217 57.456 190.937 59.824C189.721 62.128 189.113 64.816 189.113 67.888C189.113 70.896 189.721 73.616 190.937 76.048C192.217 78.416 193.945 80.272 196.121 81.616C198.297 82.96 200.825 83.632 203.705 83.632ZM240.794 94V41.776H252.602V53.392L251.642 51.664C252.858 47.76 254.746 45.04 257.306 43.504C259.93 41.968 263.066 41.2 266.714 41.2H269.786V52.336H265.274C261.69 52.336 258.81 53.456 256.634 55.696C254.458 57.872 253.37 60.944 253.37 64.912V94H240.794Z" fill="#F6F6F6"/>
<path d="M209.448 175.152C204.904 175.152 200.68 174.32 196.776 172.656C192.936 170.992 189.608 168.688 186.792 165.744C184.04 162.736 182.024 159.248 180.744 155.28L191.592 150.576C193.32 154.672 195.816 157.904 199.08 160.272C202.344 162.576 206.024 163.728 210.12 163.728C212.424 163.728 214.408 163.376 216.072 162.672C217.8 161.904 219.112 160.88 220.008 159.6C220.968 158.32 221.448 156.784 221.448 154.992C221.448 152.88 220.808 151.152 219.528 149.808C218.312 148.4 216.456 147.312 213.96 146.544L200.232 142.128C194.664 140.4 190.472 137.808 187.656 134.352C184.84 130.896 183.432 126.832 183.432 122.16C183.432 118.064 184.424 114.448 186.408 111.312C188.456 108.176 191.272 105.744 194.856 104.016C198.504 102.224 202.664 101.328 207.336 101.328C211.624 101.328 215.56 102.096 219.144 103.632C222.728 105.104 225.8 107.184 228.36 109.872C230.984 112.496 232.936 115.6 234.216 119.184L223.464 123.984C222.056 120.4 219.944 117.648 217.128 115.728C214.312 113.744 211.048 112.752 207.336 112.752C205.16 112.752 203.24 113.136 201.576 113.904C199.912 114.608 198.6 115.632 197.64 116.976C196.744 118.256 196.296 119.792 196.296 121.584C196.296 123.568 196.936 125.328 198.216 126.864C199.496 128.336 201.448 129.488 204.072 130.32L217.224 134.448C222.92 136.304 227.176 138.864 229.992 142.128C232.872 145.392 234.312 149.424 234.312 154.224C234.312 158.32 233.256 161.936 231.144 165.072C229.032 168.208 226.12 170.672 222.408 172.464C218.696 174.256 214.376 175.152 209.448 175.152ZM245.012 174V121.776H256.82V133.872L255.476 131.856C256.436 128.08 258.356 125.264 261.236 123.408C264.116 121.552 267.508 120.624 271.412 120.624C275.7 120.624 279.476 121.744 282.74 123.984C286.004 126.224 288.116 129.168 289.076 132.816L285.524 133.104C287.124 128.944 289.524 125.84 292.724 123.792C295.924 121.68 299.604 120.624 303.764 120.624C307.476 120.624 310.772 121.456 313.652 123.12C316.596 124.784 318.9 127.12 320.564 130.128C322.228 133.072 323.06 136.496 323.06 140.4V174H310.484V143.376C310.484 141.072 310.068 139.088 309.236 137.424C308.404 135.76 307.252 134.48 305.78 133.584C304.308 132.624 302.516 132.144 300.404 132.144C298.42 132.144 296.66 132.624 295.124 133.584C293.588 134.48 292.404 135.76 291.572 137.424C290.74 139.088 290.324 141.072 290.324 143.376V174H277.748V143.376C277.748 141.072 277.332 139.088 276.5 137.424C275.668 135.76 274.484 134.48 272.948 133.584C271.476 132.624 269.716 132.144 267.668 132.144C265.684 132.144 263.924 132.624 262.388 133.584C260.852 134.48 259.668 135.76 258.836 137.424C258.004 139.088 257.588 141.072 257.588 143.376V174H245.012ZM333.7 174V101.328H346.276V148.944L341.476 147.504L366.052 121.776H381.7L362.404 142.8L382.084 174H367.684L350.596 146.928L358.084 145.392L342.34 162.288L346.276 154.608V174H333.7Z" fill="#F6F6F6"/>
<path d="M289.778 87.2777H336.444V60.0555C336.444 47.1689 325.998 36.7222 313.111 36.7222C300.224 36.7222 289.778 47.1689 289.778 60.0555V87.2777Z" fill="#D42B2B" stroke="white" stroke-width="4" stroke-linejoin="round"/>
<path d="M344.223 100.889H282" stroke="white" stroke-width="4" stroke-linecap="round" stroke-linejoin="round"/>
<path d="M352 44.5L346.167 46.4444" stroke="white" stroke-width="4" stroke-linecap="round" stroke-linejoin="round"/>
<path d="M334.5 27L332.556 32.8333" stroke="white" stroke-width="4" stroke-linecap="round" stroke-linejoin="round"/>
<path d="M340.334 38.6666L346.167 32.8333" stroke="white" stroke-width="4" stroke-linecap="round" stroke-linejoin="round"/>
</svg>
